<svg xmlns="http://www.w3.org/2000/svg" xmlns:svg="http://www.w3.org/2000/svg" id="svg2" width="367.35" height="367.35" version="1.1" xml:space="preserve"><metadata id="metadata162"/><defs id="defs6"><rect id="rect303" width="165.511" height="68.473" x="-283.016" y="69.309"/><rect id="rect292" width="223.413" height="70.358" x="-245.537" y="40.972"/></defs><path style="fill:red;stroke-width:.409604" id="path274" d="m 92.390625,69.865234 c -8.322722,0.09683 -16.686885,1.701746 -25.042969,4.773438 a 159.35689,159.35689 0 0 0 -41.875,92.759768 l 15.28711,13.69531 c 8.649826,7.74968 22.694524,17.98772 31.208984,22.75195 l 15.480469,8.66211 3.878906,20.1836 c 2.58897,13.471 7.439215,26.64535 14.583985,39.60937 9.34378,16.95409 12.65574,25.7521 24.42187,31.46094 18.439,8.94643 39.04578,11.56407 61.82032,12.97656 26.65402,1.65314 43.43325,-1.91627 43.30078,-4.26172 -0.0616,-1.09095 -15.82528,-5.95993 -35.0293,-10.82031 -51.36737,-13.00065 -63.6616,-21.38207 -72.4082,-49.35937 -8.56321,-27.3907 -5.48325,-47.99034 8.21484,-54.95508 14.19287,-7.21627 27.22511,6.34279 23.27735,24.21679 -0.21142,0.95723 -0.4696,1.84464 -0.75196,2.69922 h 17.66407 c 8.86886,-13.3983 8.60705,-18.48163 12.8164,-18.66211 8.44942,-0.36231 27.66423,-17.64543 36.3086,-32.05664 6.52816,-10.88326 8.85052,-12.63509 19.26171,-14.52539 7.71915,-1.4015 15.82678,-0.92349 23.30274,1.37305 12.68547,3.89681 19.30041,2.44255 18.95508,-4.16992 -0.32433,-6.21055 -3.5091,-9.85343 -10.1543,-11.61719 -3.18167,-0.84446 -11.13187,-5.42606 -17.66797,-10.17969 -6.5361,-4.75366 -14.52335,-8.53997 -17.74805,-8.41601 -3.22473,0.12411 -9.92002,-3.00525 -14.8789,-6.95313 -16.64602,-13.25224 -26.62742,-16.01014 -26.25196,-7.2539 0.13718,3.19913 4.48449,7.81852 11.11133,11.80664 12.56227,7.56012 13.15587,9.24079 5.36524,15.21093 -12.04028,9.22674 -19.87995,5.52561 -39.88477,-18.83007 C 160.54883,100.00761 141.08157,84.362329 122.4668,76.191406 112.56093,71.843247 102.50604,69.74755 92.390625,69.865234 Z"/><path id="path276" d="m 150.47636,260.85628 c 5.92488,2.03251 13.16376,0.32123 18.6385,-4.40614 5.30347,-5.88779 6.60189,-20.86797 8.57398,-23.14576 2.54197,-7.37675 8.47377,-14.95136 6.39458,-20.65593 -2.37751,-6.52305 -24.967,-6.07436 -26.69771,-0.61345 -0.68255,2.15366 4.4203,4.13986 0.64715,14.92344 -3.23566,0.79511 -11.69354,3.97764 -13.65149,6.86444 -5.78277,8.97169 -5.47823,16.52711 0.18708,23.08741 1.55054,1.79527 3.57046,3.14441 5.90791,3.94599 z" style="fill:#000;fill-rule:evenodd;stroke-width:.505537"/><path style="fill:#000;stroke-width:.409604" id="path2408" d="M 106.39062 69.865234 C 89.507179 70.06166 72.454059 76.432451 55.640625 88.779297 A 159.35689 159.35689 0 0 0 24.904297 174.94336 C 26.151643 174.26855 27.394499 173.58467 28.628906 172.88672 L 39.033203 167.00391 L 54.759766 181.09375 C 63.409592 188.84343 77.45429 199.08147 85.96875 203.8457 L 101.44922 212.50781 L 105.32812 232.69141 C 107.9171 246.16241 112.76734 259.33676 119.91211 272.30078 C 129.25589 289.25487 132.56785 298.05288 144.33398 303.76172 C 162.77298 312.70815 183.37976 315.32579 206.1543 316.73828 C 232.80832 318.39142 249.58755 314.82201 249.45508 312.47656 C 249.39348 311.38561 233.6298 306.51663 214.42578 301.65625 C 163.05841 288.6556 150.76418 280.27418 142.01758 252.29688 C 133.45437 224.90618 136.53433 204.30654 150.23242 197.3418 C 164.42529 190.12553 177.45753 203.68459 173.50977 221.55859 C 173.29835 222.51582 173.04017 223.40323 172.75781 224.25781 L 190.42188 224.25781 C 199.29074 210.85951 199.02893 205.77618 203.23828 205.5957 C 211.6877 205.23339 230.90251 187.95027 239.54688 173.53906 C 246.07504 162.6558 248.3974 160.90397 258.80859 159.01367 C 266.52774 157.61217 274.63537 158.09018 282.11133 160.38672 C 294.7968 164.28353 301.41174 162.82927 301.06641 156.2168 C 300.74208 150.00625 297.55731 146.36337 290.91211 144.59961 C 287.73044 143.75515 279.78024 139.17355 273.24414 134.41992 C 266.70804 129.66626 258.72079 125.87995 255.49609 126.00391 C 252.27136 126.12802 245.57607 122.99866 240.61719 119.05078 C 223.97117 105.79854 213.98977 103.04064 214.36523 111.79688 C 214.50241 114.99601 218.84972 119.6154 225.47656 123.60352 C 238.03883 131.16364 238.63243 132.84431 230.8418 138.81445 C 218.80152 148.04119 210.96185 144.34006 190.95703 119.98438 C 174.54883 100.0076 155.08157 84.362329 136.4668 76.191406 C 126.56093 71.843247 116.50604 69.74755 106.39062 69.865234 z"/><path style="fill:red;fill-rule:evenodd;stroke-width:.505537" id="path259" d="m 164.47636,260.85628 c 5.92488,2.03251 13.16376,0.32123 18.6385,-4.40614 5.30347,-5.88779 6.60189,-20.86797 8.57398,-23.14576 2.54197,-7.37675 8.47377,-14.95136 6.39458,-20.65593 -2.37751,-6.52305 -24.967,-6.07436 -26.69771,-0.61345 -0.68255,2.15366 4.4203,4.13986 0.64715,14.92344 -3.23566,0.79511 -11.69354,3.97764 -13.65149,6.86444 -5.78277,8.97169 -5.47823,16.52711 0.18708,23.08741 1.55054,1.79527 3.57046,3.14441 5.90791,3.94599 z"/><path style="color:#000;font-style:normal;font-variant:normal;font-weight:400;font-stretch:normal;font-size:medium;line-height:normal;font-family:'Bitstream Vera Sans';-inkscape-font-specification:'Bitstream Vera Sans';text-indent:0;text-align:start;text-decoration:none;text-decoration-line:none;letter-spacing:normal;word-spacing:normal;text-transform:none;writing-mode:lr-tb;direction:ltr;text-anchor:start;display:inline;overflow:visible;visibility:visible;fill:#231f20;fill-opacity:1;stroke:none;stroke-width:40.748;marker:none;enable-background:accumulate" id="path20" d="M 184.04532,362.4 C 85.292231,362.4 4.8,281.90891 4.8,183.15468 c 0,-98.754615 80.492162,-179.25 179.24532,-179.25 98.75458,0 179.25,80.495415 179.25,179.25 0,98.75421 -80.49549,179.24532 -179.25,179.24532 z m 0,-40.74844 c 76.73347,0 138.50155,-61.76397 138.50155,-138.49688 0,-76.7334 -61.76815,-138.501555 -138.50155,-138.501555 -76.73156,0 -138.496882,61.768185 -138.496882,138.501555 0,76.73288 61.765252,138.49688 138.496882,138.49688 z"/><g style="font-style:normal;font-weight:400;font-size:40px;line-height:1.25;font-family:sans-serif;letter-spacing:2.59px;white-space:pre;fill:#fff;fill-opacity:1;stroke:none" id="text290" aria-label="ANTITERROR"><path id="path1185" d="M 81.690625,73.032479 87.82699,75.89203 92.269675,71.453455 62.294737,57.63686 59.068838,60.859774 72.63131,91.073654 77.0174,86.691621 74.276718,80.439529 Z m -4.552733,-2.236564 -5.065227,5.060541 -5.397623,-10.099983 0.0566,-0.05654 z" style="font-style:normal;font-variant:normal;font-weight:400;font-stretch:normal;font-family:futura-heavy;-inkscape-font-specification:futura-heavy;letter-spacing:3px;fill:#fff"/><path id="path1187" d="m 96.149209,68.460172 4.969671,-3.142737 -10.946133,-17.309321 0.06761,-0.04276 24.688309,9.328904 3.58357,-2.266191 -16.44058,-25.99779 -4.969668,3.142737 10.839238,17.140285 -0.0676,0.04276 -24.688302,-9.328904 -3.58357,2.266191 z" style="font-style:normal;font-variant:normal;font-weight:400;font-stretch:normal;font-family:futura-heavy;-inkscape-font-specification:futura-heavy;letter-spacing:3px;fill:#fff"/><path id="path1189" d="m 124.97658,24.847605 5.66014,-2.220174 -1.86962,-4.766437 -16.79424,6.587489 1.86962,4.766437 5.66015,-2.220173 9.14361,23.310855 5.47395,-2.147142 z" style="font-style:normal;font-variant:normal;font-weight:400;font-stretch:normal;font-family:futura-heavy;-inkscape-font-specification:futura-heavy;letter-spacing:3px;fill:#fff"/><path id="path1191" d="m 142.89203,14.016728 -5.68984,1.483253 7.60797,29.184658 5.68985,-1.483253 z" style="font-style:normal;font-variant:normal;font-weight:400;font-stretch:normal;font-family:futura-heavy;-inkscape-font-specification:futura-heavy;letter-spacing:3px;fill:#fff"/><path id="path1193" d="m 163.89872,15.415608 6.02326,-0.828707 -0.69786,-5.0722179 -17.87164,2.4588619 0.69786,5.072217 6.02326,-0.828707 3.41296,24.806315 5.82513,-0.801447 z" style="font-style:normal;font-variant:normal;font-weight:400;font-stretch:normal;font-family:futura-heavy;-inkscape-font-specification:futura-heavy;letter-spacing:3px;fill:#fff"/><path id="path1195" d="m 194.46192,14.358214 0.0706,-5.1195134 -15.59852,-0.2151057 -0.41587,30.1571331 15.59852,0.215105 0.0706,-5.119513 -9.71908,-0.134027 0.11252,-8.159225 9.35911,0.129064 0.0706,-5.119513 -9.35911,-0.129064 0.0916,-6.639369 z" style="font-style:normal;font-variant:normal;font-weight:400;font-stretch:normal;font-family:futura-heavy;-inkscape-font-specification:futura-heavy;letter-spacing:3px;fill:#fff"/><path id="path1197" d="m 215.00617,29.590898 q 2.91941,0.04263 4.96206,-2.025504 2.04266,-2.06813 2.59331,-5.098507 0.82955,-4.565244 -1.41395,-7.208935 -2.23635,-2.683047 -6.88031,-3.526899 l -7.83175,-1.423106 -5.39207,29.674082 5.78526,1.051239 2.174,-11.964086 0.0787,0.0143 5.02807,13.272772 7.00529,1.272929 z m -3.64353,-13.509046 0.78711,0.143025 q 2.63682,0.479137 3.84979,1.634609 1.21296,1.155473 0.74813,3.713583 -0.46484,2.558111 -2.06757,3.323909 -1.55623,0.733593 -4.19305,0.254457 l -0.74775,-0.135874 z" style="font-style:normal;font-variant:normal;font-weight:400;font-stretch:normal;font-family:futura-heavy;-inkscape-font-specification:futura-heavy;letter-spacing:3px;fill:#fff"/><path id="path1199" d="m 241.42163,37.37401 q 2.86638,0.555579 5.24102,-1.120926 2.37464,-1.676504 3.44984,-4.562738 1.61978,-4.348093 -0.12362,-7.345252 -1.72943,-3.034642 -6.15249,-4.68235 l -7.45923,-2.778763 -10.52858,28.262603 5.51009,2.052653 4.24494,-11.395001 0.075,0.02793 2.61455,13.950345 6.67207,2.485526 z m -1.21003,-13.939348 0.74967,0.279272 q 2.5114,0.935564 3.50216,2.286412 0.99076,1.350849 0.0831,3.78728 -0.90763,2.436432 -2.62009,2.908313 -1.66102,0.448362 -4.17242,-0.487201 l -0.71219,-0.265309 z" style="font-style:normal;font-variant:normal;font-weight:400;font-stretch:normal;font-family:futura-heavy;-inkscape-font-specification:futura-heavy;letter-spacing:3px;fill:#fff"/><path id="path1201" d="m 281.62001,56.729275 q 1.79811,-2.838385 2.427,-5.849247 0.68409,-3.023247 0.12909,-5.884432 -0.4998,-2.873569 -2.18915,-5.36429 -1.68935,-2.490722 -4.49395,-4.267418 -2.80459,-1.776696 -5.7783,-2.24 -2.97371,-0.463304 -5.81915,0.291073 -2.81165,0.775783 -5.26522,2.630723 -2.41977,1.876346 -4.21788,4.714731 -1.77669,2.804594 -2.46078,5.827841 -0.66268,2.989457 -0.18429,5.896816 0.4998,2.873569 2.16775,5.398081 1.72314,2.512127 4.56152,4.310229 2.83839,1.798103 5.8121,2.261406 3.0289,0.45092 5.84055,-0.324863 2.83306,-0.809573 5.25283,-2.685919 2.44119,-1.910136 4.21788,-4.714731 z m -5.00768,-3.45645 q -0.98468,1.554353 -2.37484,2.851835 -1.36875,1.263691 -3.09452,1.969761 -1.69197,0.727476 -3.63729,0.584196 -1.94532,-0.143281 -3.90516,-1.384827 -1.95984,-1.241547 -2.92048,-2.939181 -0.96065,-1.697634 -1.05956,-3.559627 -0.0651,-1.840586 0.49267,-3.618021 0.57919,-1.811226 1.56386,-3.365579 0.98468,-1.554354 2.4334,-2.720037 1.44871,-1.165683 3.17784,-1.72757 1.72913,-0.561887 3.54265,-0.360048 1.86872,0.189455 3.55823,1.259754 1.68952,1.070299 2.6254,2.65754 0.99107,1.574857 1.22178,3.378291 0.23071,1.803434 -0.2043,3.611296 -0.43501,1.807863 -1.41968,3.362217 z" style="font-style:normal;font-variant:normal;font-weight:400;font-stretch:normal;font-family:futura-heavy;-inkscape-font-specification:futura-heavy;letter-spacing:3px;fill:#fff"/><path id="path1203" d="m 295.20962,72.803582 q 2.40201,1.659864 5.25001,1.078057 2.848,-0.581807 4.99172,-2.793335 3.2295,-3.331654 2.83642,-6.776633 -0.36525,-3.4737 -3.75435,-6.758884 l -5.71551,-5.540267 -20.99176,21.655748 4.22201,4.092559 8.46352,-8.73123 0.0574,0.05568 -3.20755,13.826048 5.11237,4.955616 z m 4.48944,-13.251965 0.57442,0.556811 q 1.92432,1.865316 2.28923,3.500321 0.36491,1.635006 -1.44473,3.501881 -1.80963,1.866874 -3.56745,1.611365 -1.70125,-0.25639 -3.62557,-2.121706 l -0.5457,-0.52897 z" style="font-style:normal;font-variant:normal;font-weight:400;font-stretch:normal;font-family:futura-heavy;-inkscape-font-specification:futura-heavy;letter-spacing:3px;fill:#fff"/></g><g style="font-style:normal;font-weight:400;font-size:40px;line-height:1.25;font-family:sans-serif;letter-spacing:7.5px;fill:#fff;fill-opacity:1;stroke:none" id="text309" aria-label="ANSCHLAG"><path id="path1168" d="m 89.295029,319.98303 -1.926615,6.49 5.043331,3.74209 9.261035,-31.6801 -3.662039,-2.71718 -27.892447,17.85583 4.979085,3.69442 5.78139,-3.62982 z m 1.543145,-4.83201 -5.75004,-4.26645 9.196994,-6.82344 0.06425,0.0477 z" style="font-style:normal;font-variant:normal;font-weight:400;font-stretch:normal;font-family:futura-heavy;-inkscape-font-specification:futura-heavy;fill:#fff;fill-opacity:1"/><path id="path1170" d="m 100.53012,334.91744 5.34897,2.44189 8.50511,-18.63044 0.0728,0.0332 5.6916,25.77104 3.85708,1.76082 12.77427,-27.98206 -5.34897,-2.44189 -8.42205,18.44851 -0.0728,-0.0332 -5.69159,-25.77104 -3.85709,-1.76082 z" style="font-style:normal;font-variant:normal;font-weight:400;font-stretch:normal;font-family:futura-heavy;-inkscape-font-specification:futura-heavy;fill:#fff;fill-opacity:1"/><path id="path1172" d="m 158.50435,326.27041 q -0.93939,-1.74653 -3.09834,-3.20904 -2.11074,-1.4921 -4.13364,-1.9761 -1.8284,-0.43745 -3.55202,-0.10952 -1.71431,0.28903 -3.1699,1.21577 -1.4556,0.92673 -2.50785,2.40239 -1.00405,1.44606 -1.4322,3.23555 -0.40022,1.67279 -0.23124,3.02935 0.16898,1.35655 0.80144,2.49497 0.68068,1.10882 1.6413,2.07898 0.99952,0.97946 2.40668,1.9742 0.35179,0.24868 0.42029,0.3062 0.98687,0.68854 1.60334,1.20619 0.66468,0.48806 1.20502,1.15202 0.54033,0.66395 0.75251,1.49617 0.21217,0.83221 -0.0298,1.84366 -0.41884,1.7506 -1.76704,2.74416 -1.3482,0.99356 -3.02099,0.59333 -1.75059,-0.41884 -2.93102,-2.01739 -1.14154,-1.58925 -1.33582,-3.52767 l -4.5613,2.73367 q 0.95276,3.06586 2.84608,5.12288 1.89332,2.05701 4.81098,2.75508 4.43483,1.06107 7.70211,-1.07737 3.27658,-2.17734 4.34695,-6.65107 0.484,-2.02291 0.21525,-3.65011 -0.26874,-1.62719 -1.08641,-2.85105 -0.81766,-1.22386 -1.80621,-2.07731 -0.97924,-0.89235 -2.48449,-1.99281 -2.02363,-1.51239 -2.88783,-2.54174 -0.8642,-1.02935 -0.53844,-2.39092 0.33508,-1.40047 1.64772,-2.07351 1.32194,-0.71194 2.72242,-0.37686 1.40047,0.33507 2.3019,1.20881 0.94034,0.88304 1.51696,2.25487 z" style="font-style:normal;font-variant:normal;font-weight:400;font-stretch:normal;font-family:futura-heavy;-inkscape-font-specification:futura-heavy;fill:#fff;fill-opacity:1"/><path id="path1174" d="m 185.45502,327.01257 q -3.0867,-1.95189 -6.60014,-2.16658 -3.23397,-0.19762 -6.0669,0.91166 -2.79301,1.11172 -4.92835,3.26549 -2.13289,2.11385 -3.38898,4.96254 -1.25608,2.84869 -1.45126,6.04274 -0.18785,3.07426 0.71692,5.97485 0.9447,2.90302 2.80679,5.22091 1.90202,2.32033 4.54133,3.72391 2.63931,1.40359 5.71357,1.59145 1.7168,0.1049 3.38302,-0.27418 1.70615,-0.37664 3.55403,-1.10529 l 0.42694,-6.98697 q -1.36544,1.35925 -3.21576,2.12783 -1.8104,0.77102 -3.64697,0.65879 -1.99628,-0.12198 -3.58199,-1.06044 -1.58572,-0.93847 -2.65573,-2.44654 -1.06757,-1.54799 -1.59659,-3.38367 -0.48666,-1.87317 -0.36956,-3.7896 0.11955,-1.95635 0.83309,-3.79626 0.71355,-1.8399 1.96166,-3.24639 1.24811,-1.4065 2.93629,-2.14491 1.73054,-0.77589 3.76674,-0.65147 1.8765,0.11466 3.58199,1.06044 1.70549,0.94579 2.85048,2.53859 z" style="font-style:normal;font-variant:normal;font-weight:400;font-stretch:normal;font-family:futura-heavy;-inkscape-font-specification:futura-heavy;fill:#fff;fill-opacity:1"/><path id="path1176" d="m 198.57815,336.98101 -1.52833,-11.78128 -5.83114,0.75644 3.87999,29.90939 5.83114,-0.75645 -1.73416,-13.36799 10.78959,-1.39967 1.73416,13.36798 5.83114,-0.75644 -3.87998,-29.90938 -5.83114,0.75644 1.52832,11.78128 z" style="font-style:normal;font-variant:normal;font-weight:400;font-stretch:normal;font-family:futura-heavy;-inkscape-font-specification:futura-heavy;fill:#fff;fill-opacity:1"/><path id="path1178" d="m 225.84745,319.44773 -5.62351,1.71769 8.81047,28.84443 13.5806,-4.14817 -1.49568,-4.89666 -7.95708,2.43047 z" style="font-style:normal;font-variant:normal;font-weight:400;font-stretch:normal;font-family:futura-heavy;-inkscape-font-specification:futura-heavy;fill:#fff;fill-opacity:1"/><path id="path1180" d="m 263.47011,329.45329 4.9269,4.64302 5.61243,-2.81763 -24.11463,-22.53618 -4.07527,2.04592 3.38081,32.94524 5.54093,-2.78173 -0.63714,-6.79662 z m -3.61927,-3.55395 -6.39889,3.21245 -1.9503,-11.28451 0.0715,-0.0359 z" style="font-style:normal;font-variant:normal;font-weight:400;font-stretch:normal;font-family:futura-heavy;-inkscape-font-specification:futura-heavy;fill:#fff;fill-opacity:1"/><path id="path1182" d="m 282.48384,305.06282 2.99547,3.75062 5.00083,-3.99396 q 0.7925,1.05638 1.15372,2.40602 0.33626,1.31838 0.18523,2.6676 -0.11978,1.32425 -0.73922,2.53566 -0.6444,1.18014 -1.70707,2.02886 -1.59402,1.27308 -3.42465,1.60892 -1.82434,0.27962 -3.61679,-0.2341 -1.81742,-0.54497 -3.42822,-1.66449 -1.57954,-1.14448 -2.77773,-2.64473 -1.19819,-1.50025 -1.99006,-3.325 -0.76062,-1.84972 -0.89026,-3.74266 -0.1546,-1.92418 0.52148,-3.64154 0.65111,-1.74862 2.24512,-3.02169 1.78155,-1.42285 4.068,-1.50844 2.26149,-0.11685 4.30336,0.96555 l 2.31581,-5.43296 q -3.49072,-1.61457 -7.13311,-1.11154 -3.64238,0.50303 -6.67413,2.92437 -2.56293,2.0469 -3.92074,4.76946 -1.35152,2.66635 -1.48514,5.63979 -0.12732,2.91722 0.88229,5.84787 0.98465,2.89939 3.00659,5.43106 1.94706,2.4379 4.52572,4.06421 2.5537,1.59506 5.39562,2.14087 2.87317,0.52085 5.76606,-0.15146 2.86793,-0.70356 5.36834,-2.70054 2.65669,-2.1218 3.91445,-4.71325 1.23279,-2.62272 1.17887,-5.44638 -0.0789,-2.85492 -1.2198,-5.6295 -1.14092,-2.77458 -3.18783,-5.33751 l -0.47428,-0.59384 z" style="font-style:normal;font-variant:normal;font-weight:400;font-stretch:normal;font-family:futura-heavy;-inkscape-font-specification:futura-heavy;fill:#fff;fill-opacity:1"/></g></svg>